<svg width="179" height="144" viewBox="0 0 179 144" fill="none" xmlns="http://www.w3.org/2000/svg">
<path fill-rule="evenodd" clip-rule="evenodd" d="M156.462 57.0134L156.464 57.0071L156.467 57.009L156.465 57.0152L156.462 57.0134ZM117.926 93.3177C137.067 90.3226 152.363 75.7652 156.465 57.0152C170.296 65.5281 179 80.9338 179 97.0279C179 122.864 158.133 143.818 132.332 143.967V143.976H59.4298C26.6077 143.976 0 117.369 0 84.5464C0 51.7243 28.4365 21.6256 65.9908 25.4587C66.8986 25.5508 67.7976 25.6736 68.6923 25.8139C76.4286 10.5036 92.2871 0 110.61 0C136.538 0 157.554 21.016 157.554 46.9439C157.554 50.402 157.173 53.7637 156.464 57.0071C148.004 51.8114 137.638 49.1808 126.171 50.5489C120.645 51.2068 115.307 53.3864 110.417 56.566C114.544 64.0128 118.351 81.494 117.926 93.3177ZM110.417 56.566C99.2954 63.7892 90.5109 76.1742 87.1471 87.5988C73.1131 79.481 63.6664 64.3198 63.6664 46.9439C63.6664 39.3392 65.4864 32.1643 68.6967 25.8095C86.6954 28.6207 101.747 40.7865 110.417 56.566ZM87.1471 87.5988C94.0501 91.5898 102.058 93.8878 110.615 93.8966C113.101 93.8966 115.544 93.6992 117.926 93.3265C117.86 95.2167 117.689 96.9709 117.386 98.5103C117.092 100.006 116.794 101.431 116.294 102.975C116.097 103.707 115.57 104.94 115.237 105.611C112.566 110.987 107.422 114.514 101.111 114.514C93.0502 114.514 86.4454 108.308 85.7964 100.414C85.7945 100.388 85.7925 100.363 85.7904 100.338C85.7878 100.305 85.785 100.271 85.7822 100.238C85.7725 100.121 85.7627 100.004 85.7569 99.8874C85.7042 98.9401 85.6648 97.9884 85.6648 97.0279C85.6648 94.0589 86.1867 90.8705 87.1471 87.5988ZM50.2682 121.355C50.2243 120.649 50.198 119.939 50.198 119.219C50.198 109.251 58.0088 95.9228 68.6966 88.9803C72.2709 95.436 75.5339 111.992 73.9024 120.324C73.6831 121.443 73.4594 122.509 73.0867 123.662C72.9376 124.21 72.5472 125.131 72.2972 125.631C70.3018 129.653 66.4556 132.288 61.741 132.288C55.7195 132.288 50.7813 127.648 50.2945 121.75L50.2682 121.355Z" fill="#6E78E1"/>
</svg>
