<svg width="209" height="228" viewBox="0 0 209 228" fill="none" xmlns="http://www.w3.org/2000/svg">
<g filter="url(#filter0_d_1050_18092)">
<path d="M15.9443 185.537C7.93652 185.537 2.95605 180.02 2.95605 171.816C2.95605 163.613 7.93652 158.145 15.9443 158.145C23.9521 158.145 28.9814 163.613 28.9814 171.816C28.9814 180.02 23.9521 185.537 15.9443 185.537ZM15.9932 179.922C19.7041 179.922 21.6084 176.455 21.6084 171.816C21.6084 167.129 19.7041 163.662 15.9932 163.662C12.2334 163.662 10.2803 167.129 10.2803 171.816C10.2803 176.455 12.2334 179.922 15.9932 179.922ZM40.749 169.668V185H33.5225V158.486H40.4072V163.125H40.7002C41.9209 160.049 44.7529 158.145 48.6592 158.145C54.1768 158.145 57.8389 161.904 57.79 168.105V185H50.6123V169.375C50.6123 166.104 48.8057 164.15 45.8271 164.15C42.7998 164.15 40.749 166.152 40.749 169.668ZM73.1709 185.439C67.1162 185.439 62.3799 180.605 62.3799 171.768C62.3799 162.686 67.3115 158.145 73.1709 158.145C77.6143 158.145 79.7139 160.781 80.6904 162.93H80.9346V149.648H88.1611V185H81.0322V180.752H80.6904C79.665 182.949 77.4678 185.439 73.1709 185.439ZM75.417 179.678C79.0303 179.678 81.0811 176.504 81.0811 171.719C81.0811 166.934 79.0303 163.906 75.417 163.906C71.7549 163.906 69.8018 167.08 69.8018 171.719C69.8018 176.406 71.7549 179.678 75.417 179.678ZM105.886 185.537C97.8779 185.537 92.8975 180.02 92.8975 171.816C92.8975 163.613 97.8779 158.145 105.886 158.145C113.894 158.145 118.923 163.613 118.923 171.816C118.923 180.02 113.894 185.537 105.886 185.537ZM105.935 179.922C109.646 179.922 111.55 176.455 111.55 171.816C111.55 167.129 109.646 163.662 105.935 163.662C102.175 163.662 100.222 167.129 100.222 171.816C100.222 176.455 102.175 179.922 105.935 179.922ZM138.601 166.348C138.308 164.492 136.647 163.271 134.255 163.271C131.911 163.271 130.104 164.395 130.153 166.006C130.104 167.178 131.081 168.105 133.571 168.643L138.308 169.619C143.435 170.693 145.925 172.988 145.974 176.797C145.925 182.021 141.237 185.537 134.206 185.537C127.028 185.537 122.829 182.314 122.243 177.139H129.519C129.86 179.238 131.569 180.312 134.206 180.312C136.843 180.312 138.601 179.238 138.601 177.529C138.601 176.162 137.478 175.332 134.987 174.795L130.593 173.916C125.563 172.939 122.927 170.303 122.976 166.396C122.927 161.318 127.321 158.145 134.157 158.145C140.847 158.145 144.997 161.318 145.388 166.348H138.601ZM162.429 185.537C154.323 185.537 149.343 180.264 149.343 171.865C149.343 163.662 154.372 158.145 162.136 158.145C169.118 158.145 174.587 162.539 174.587 171.572V173.623H156.472C156.472 177.627 158.864 180.117 162.575 180.117C165.017 180.117 166.774 179.043 167.507 177.432H174.392C173.366 182.314 168.972 185.537 162.429 185.537ZM156.472 169.082H167.751C167.751 165.859 165.505 163.564 162.282 163.564C158.962 163.564 156.594 166.03 156.472 169.082ZM193.093 158.486V163.906H188.112V176.846C188.112 178.945 189.138 179.482 190.603 179.531C191.335 179.531 192.604 179.482 193.483 179.385V185.098C192.702 185.244 191.433 185.342 189.626 185.342C184.401 185.342 180.837 182.998 180.886 177.871V163.906H177.224V158.486H180.886V152.139H188.112V158.486H193.093Z" fill="white"/>
<path d="M70.1016 212.031C70.1016 209.668 72.0156 208.887 74.0469 208.77C74.8086 208.721 76.2344 208.652 76.6836 208.633V207.773C76.6641 206.895 76.0586 206.367 74.9844 206.367C74.0078 206.367 73.3828 206.816 73.2266 207.539H70.4727C70.6484 205.703 72.25 204.258 75.0625 204.258C77.3672 204.258 79.5547 205.293 79.5547 207.852V215H76.8203V213.535H76.7422C76.2148 214.512 75.2188 215.195 73.6367 215.195C71.6055 215.195 70.1016 214.141 70.1016 212.031ZM72.875 211.953C72.875 212.773 73.5391 213.203 74.457 213.203C75.7656 213.203 76.7031 212.324 76.6836 211.211V210.43C76.2441 210.449 75.0137 210.518 74.5156 210.566C73.5195 210.664 72.875 211.133 72.875 211.953ZM85.668 215.176C83.2461 215.176 81.3516 213.242 81.3516 209.707C81.3516 206.074 83.3242 204.258 85.668 204.258C87.4453 204.258 88.2852 205.312 88.6758 206.172H88.7734V200.859H91.6641V215H88.8125V213.301H88.6758C88.2656 214.18 87.3867 215.176 85.668 215.176ZM86.5664 212.871C88.0117 212.871 88.832 211.602 88.832 209.688C88.832 207.773 88.0117 206.562 86.5664 206.562C85.1016 206.562 84.3203 207.832 84.3203 209.688C84.3203 211.562 85.1016 212.871 86.5664 212.871ZM93.9883 215V204.395H96.7422V206.25H96.8594C97.3086 205.02 98.3828 204.258 99.8086 204.258C101.273 204.258 102.348 205.02 102.699 206.25H102.797C103.246 205.039 104.438 204.258 106 204.258C107.973 204.258 109.34 205.566 109.34 207.871V215H106.449V208.438C106.449 207.227 105.746 206.641 104.789 206.641C103.695 206.641 103.07 207.402 103.07 208.516V215H100.258V208.359C100.258 207.305 99.5938 206.641 98.6172 206.641C97.6406 206.641 96.8789 207.422 96.8789 208.633V215H93.9883ZM111.566 215V204.395H114.457V215H111.566ZM113.012 203.008C112.133 203.008 111.43 202.344 111.43 201.543C111.43 200.723 112.133 200.059 113.012 200.059C113.871 200.059 114.574 200.723 114.574 201.543C114.574 202.344 113.871 203.008 113.012 203.008ZM119.594 208.867V215H116.703V204.395H119.457V206.25H119.574C120.062 205.02 121.195 204.258 122.758 204.258C124.965 204.258 126.43 205.762 126.41 208.242V215H123.539V208.75C123.539 207.441 122.816 206.66 121.625 206.66C120.414 206.66 119.594 207.461 119.594 208.867Z" fill="white"/>
<g clip-path="url(#clip0_1050_18092)">
<path d="M143.886 57.9756C148.032 54.288 142.554 47.016 137.453 50.9429C134.469 53.4221 131.533 56.0604 128.996 58.5245C128.619 58.8836 130.181 60.6341 133.261 63.8179C136.34 67.0017 137.008 66.6235 136.8 64.4067C139.845 61.6131 141.356 60.1765 143.886 57.9756Z" fill="#829BF0"/>
<path d="M154.081 68.2619C158.292 64.102 152.012 57.2838 147.4 61.6706C145.11 63.7459 142.816 65.979 139.897 69.0127C139.625 69.3745 141.241 71.0736 143.964 73.7746C147.252 77.0689 148.179 76.8552 147.895 74.5049C149.439 72.7795 151.463 70.8029 154.081 68.2619Z" fill="#829BF0"/>
<path d="M169.524 64.5148C168.434 67.0414 166.677 70.973 165.744 73.5035C165.207 74.9908 164.214 75.7295 163.099 76.1228C161.558 76.6635 159.701 76.1694 158.643 75.3268C155.647 72.9876 157.377 68.0548 158.469 65.423C159.842 62.1136 161.251 58.4103 164.69 57.7591C168.816 57.0199 170.949 61.2068 169.524 64.5148Z" fill="#829BF0"/>
<path d="M176.924 22.3376C185.768 29.7992 189.269 41.4186 182.172 51.4564C192.306 63.1365 180.007 78.0202 166.354 75.4406C160.512 74.2677 155.97 70.626 146.016 60.1615C135.883 49.5083 131.522 44.9234 130.835 37.6659C129.899 27.7167 140.144 19.1531 149.251 23.4881C157.034 15.4685 168.819 15.8687 176.924 22.3376Z" fill="#BFCBF5"/>
<path d="M164.609 37.8527C164.943 38.2033 164.659 39.0387 164.195 39.6853C163.677 40.3832 162.749 40.6496 162.261 40.1372C161.8 39.6517 162.058 38.7894 162.703 38.2789C163.295 37.7672 164.301 37.5291 164.609 37.8527Z" fill="#4B4682"/>
<path d="M172.305 45.944C172.639 46.2946 172.355 47.13 171.891 47.7766C171.373 48.4745 170.445 48.7409 169.958 48.2285C169.496 47.743 169.754 46.8807 170.399 46.3702C170.991 45.8585 171.997 45.6204 172.305 45.944Z" fill="#4B4682"/>
<path d="M161.062 43.8984C162.143 46.9796 164.144 49.0833 167.013 50.1555" stroke="#4B4682" stroke-width="2" stroke-miterlimit="10" stroke-linecap="round"/>
<path d="M146.372 45.9533C143.794 46.9156 139.753 48.4468 137.329 49.571C135.917 50.2465 134.658 50.057 133.619 49.5044C132.162 48.7835 131.203 47.1271 131.053 45.7806C130.621 41.9785 135.336 39.8059 137.969 38.7397C141.267 37.4005 144.915 35.7804 147.813 37.8012C151.228 40.2036 149.747 44.695 146.372 45.9533Z" fill="#829BF0"/>
</g>
<path d="M151.995 59.547C152.563 56.9543 152.867 54.267 152.867 51.5027C152.867 30.7893 136.078 14 115.365 14C100.727 14 88.0575 22.3912 81.8771 34.6223C81.1624 34.5102 80.4441 34.4121 79.7189 34.3385C49.7174 31.2763 27 55.3216 27 81.5427C27 107.764 48.2564 129.02 74.4775 129.02H132.718V129.013C153.33 128.894 170 112.154 170 91.5139C170 78.6557 163.045 66.3475 151.995 59.547Z" fill="white"/>
<path d="M127.795 54.3827C123.381 54.9082 119.117 56.6495 115.21 59.1896C118.507 65.1388 121.548 79.1042 121.209 88.5499C136.502 86.157 148.723 74.525 151.998 59.5435C145.24 55.3917 136.957 53.2896 127.795 54.3827Z" fill="#A8B9F5"/>
<path d="M96.6202 83.9811C99.3075 74.8541 106.325 64.9599 115.21 59.1895C108.284 46.5835 96.2594 36.8645 81.8805 34.6187C79.3159 39.6954 77.8619 45.4273 77.8619 51.5026C77.8619 65.3839 85.4087 77.4959 96.6202 83.9811Z" fill="#A8B9F5"/>
<path d="M96.6203 83.9814C95.853 86.5951 95.4361 89.1423 95.4361 91.5142C95.4361 92.2815 95.4676 93.0418 95.5097 93.7986C95.5167 93.9387 95.5307 94.0789 95.5412 94.219C96.0597 100.526 101.336 105.483 107.776 105.483C112.818 105.483 116.927 102.666 119.061 98.3708C119.327 97.8347 119.748 96.8502 119.905 96.2651C120.305 95.0318 120.543 93.8932 120.778 92.6984C121.019 91.4687 121.156 90.0672 121.209 88.5572C119.306 88.855 117.355 89.0126 115.368 89.0126C108.533 89.0056 102.135 87.1697 96.6203 83.9814Z" fill="#A8B9F5"/>
<path d="M67.1023 109.242C67.1023 109.817 67.1233 110.385 67.1583 110.949C67.1654 111.054 67.1724 111.159 67.1794 111.264C67.5683 115.976 71.5133 119.683 76.3238 119.683C80.0902 119.683 83.1628 117.577 84.757 114.365C84.9567 113.965 85.2685 113.229 85.3877 112.792C85.6855 111.87 85.8641 111.019 86.0393 110.125C87.3427 103.468 84.736 90.2423 81.8805 85.085C73.3422 90.6312 67.1023 101.279 67.1023 109.242Z" fill="#A8B9F5"/>
</g>
<defs>
<filter id="filter0_d_1050_18092" x="0.956055" y="0" width="207.767" height="219.195" filterUnits="userSpaceOnUse" color-interpolation-filters="sRGB">
<feFlood flood-opacity="0" result="BackgroundImageFix"/>
<feColorMatrix in="SourceAlpha" type="matrix" values="0 0 0 0 0 0 0 0 0 0 0 0 0 0 0 0 0 0 127 0" result="hardAlpha"/>
<feOffset dy="2"/>
<feGaussianBlur stdDeviation="1"/>
<feComposite in2="hardAlpha" operator="out"/>
<feColorMatrix type="matrix" values="0 0 0 0 0 0 0 0 0 0 0 0 0 0 0 0 0 0 0.1 0"/>
<feBlend mode="normal" in2="BackgroundImageFix" result="effect1_dropShadow_1050_18092"/>
<feBlend mode="normal" in="SourceGraphic" in2="effect1_dropShadow_1050_18092" result="shape"/>
</filter>
<clipPath id="clip0_1050_18092">
<rect width="67" height="67" fill="white" transform="translate(160.547) rotate(46.4334)"/>
</clipPath>
</defs>
</svg>
